inDegrees=yes
name=ik_S41_A09_T01
DataType=double
version=3
OpenSimVersion=4.3-2021-08-27-4bc7ad9
endheader
time	pelvis_tilt	pelvis_list	pelvis_rotation	pelvis_tx	pelvis_ty	pelvis_tz	hip_flexion_r	hip_adduction_r	hip_rotation_r	knee_angle_r	knee_angle_r_beta	ankle_angle_r	subtalar_angle_r	mtp_angle_r	hip_flexion_l	hip_adduction_l	hip_rotation_l	knee_angle_l	knee_angle_l_beta	ankle_angle_l	subtalar_angle_l	mtp_angle_l	lumbar_extension	lumbar_bending	lumbar_rotation	arm_flex_r	arm_add_r	arm_rot_r	elbow_flex_r	pro_sup_r	wrist_flex_r	wrist_dev_r	arm_flex_l	arm_add_l	arm_rot_l	elbow_flex_l	pro_sup_l	wrist_flex_l	wrist_dev_l
17.83999999999971	-8.12091863327878	-3.565998337059175	27.55137623633083	0	0.9399999999999999	0	41.85441492269227	-10.22321287346629	-10.21276266684241	48.1124516315188	0.8397206921765207	0	0	0	41.85441492269227	-10.22321287346629	-10.21276266684241	48.1124516315188	0.8397206921765207	0	0	0	-7.857402251535793	-0.662739297451826	5.843964082881564	62.44793011421542	3.766476227444629	6.487981126707089	35.86921224961252	104.8837654389429	0	0	67.55445711912652	-3.597791219911123	9.155601635317623	60.075757603547	100.492918717036	0	0
17.85999999999971	-8.116349130150953	-3.542490702142985	27.50803790105225	0	0.9399999999999999	0	41.85532940323235	-10.22298756684831	-10.21262471382408	48.11381050049494	0.8397444089142574	0	0	0	41.85532940323235	-10.22298756684831	-10.21262471382408	48.11381050049494	0.8397444089142574	0	0	0	-7.8392400442274	-0.6541473235109234	5.907855463203567	62.46072393829004	3.784626107370463	6.542678407312261	35.80826279268612	104.9723573314239	0	0	67.46895581781941	-3.351564798662861	9.519682556611841	59.78925328632506	100.4597960526887	0	0
17.87999999999971	-8.116624908226701	-3.527017946576961	27.46150030201266	0	0.9399999999999999	0	41.85607499276131	-10.22280465586172	-10.21251254478916	48.11492223632852	0.8397638123649658	0	0	0	41.85607499276131	-10.22280465586172	-10.21251254478916	48.11492223632852	0.8397638123649658	0	0	0	-7.828563639361493	-0.6518606640718592	5.980618545850768	62.48893053454542	3.788537721375318	6.621020498392656	35.73523692946616	105.0099191551011	0	0	67.32909996864245	-3.151467919138236	9.966404486320837	59.61688987941073	100.2011773395202	0	0
17.89999999999971	-8.125150671945804	-3.517618535237881	27.41638924344882	0	0.9399999999999999	0	41.85695242330571	-10.22258885240789	-10.21238030419849	48.1162267742423	0.8397865808467785	0	0	0	41.85695242330571	-10.22258885240789	-10.21238030419849	48.1162267742423	0.8397865808467785	0	0	0	-7.828360583193518	-0.6502908404881655	6.047530023653702	62.5758254476135	3.750518568585586	6.659337495037834	35.61788554078189	105.1411971632954	0	0	67.23081388751207	-2.996021689124023	10.35829077799913	59.47500578451893	99.83777676744316	0	0
17.91999999999971	-8.138264142543667	-3.504181821409214	27.35999015550154	0	0.9399999999999999	0	41.85790245329952	-10.22235545784048	-10.21223721009669	48.11763981667825	0.8398112430897562	0	0	0	41.85790245329952	-10.22235545784048	-10.21223721009669	48.11763981667825	0.8398112430897562	0	0	0	-7.831305677103099	-0.6403340513563768	6.097871781925241	62.65628311572614	3.715464574382153	6.642437377300399	35.52058116735756	105.5054896606347	0	0	67.15737848041583	-2.88974314791446	10.52390957396312	59.39233080542996	99.31865351471912	0	0
17.93999999999971	-8.145045570851757	-3.492288749713069	27.36515907487271	0	0.9399999999999999	0	41.85877481266295	-10.22214355920863	-10.21210677825944	48.11895014297924	0.8398341125979839	0	0	0	41.85877481266295	-10.22214355920863	-10.21210677825944	48.11895014297924	0.8398341125979839	0	0	0	-7.832225006472742	-0.625580692272802	6.091762553198095	62.68052566785865	3.705307396747145	6.728375870697008	35.42502212201938	105.7870608083314	0	0	67.14137623556778	-2.863965084174777	10.45733211992827	59.33593932877742	98.83047996867056	0	0
17.95999999999971	-8.138104374000964	-3.490638589636576	27.40021341500177	0	0.9399999999999999	0	41.8595711822548	-10.2219475996221	-10.21198667544869	48.12013163790284	0.8398547335744964	0	0	0	41.8595711822548	-10.2219475996221	-10.21198667544869	48.12013163790284	0.8398547335744964	0	0	0	-7.826625417346324	-0.6236056648709125	6.068783900014134	62.72012699522021	3.72177792894073	6.825265982984653	35.33937479283258	105.6890814833444	0	0	67.2024888619748	-2.893266240493596	10.24630107655637	59.2648584363632	98.50426466400135	0	0
17.97999999999971	-8.137536392711731	-3.489658369064073	27.43264961416268	0	0.9399999999999999	0	41.86015914493252	-10.22180379263536	-10.21189834808229	48.12100843760236	0.8398700366161334	0	0	0	41.86015914493252	-10.22180379263536	-10.21189834808229	48.12100843760236	0.8398700366161334	0	0	0	-7.826595862097783	-0.6203797309627501	6.052482229475833	62.72987977339689	3.698626370945645	6.834427150749091	35.29928643317633	105.8226430633024	0	0	67.2896125405893	-2.909574659030739	10.01474241814515	59.18986932246761	98.39565349300693	0	0
17.99999999999971	-8.12331107825516	-3.466657766807998	27.48824751347435	0	0.9399999999999999	0	41.8608095178465	-10.22164963381164	-10.21180264453568	48.12200623821064	0.8398874515220265	0	0	0	41.8608095178465	-10.22164963381164	-10.21180264453568	48.12200623821064	0.8398874515220265	0	0	0	-7.801662437309827	-0.6114661067207786	6.082192435829273	62.71688361332411	3.607299752718807	6.858279001723837	35.23426760306908	105.9701416645923	0	0	67.23107573676079	-2.788443784816249	10.0593336460877	59.06812396896233	98.03866212308175	0	0
18.0199999999997	-8.122472625265592	-3.454966801575999	27.51345378363636	0	0.9399999999999999	0	41.8615586574558	-10.22146919852829	-10.2116912172885	48.12313810442598	0.8399072063141761	0	0	0	41.8615586574558	-10.22146919852829	-10.2116912172885	48.12313810442598	0.8399072063141761	0	0	0	-7.794049145001246	-0.6056088220159558	6.10663956272569	62.71018322961947	3.532535741286969	6.846462526432338	35.25010342533065	106.4323749750391	0	-1.077613842297402e-35	67.27963131467907	-2.67132232224859	9.973366441670247	58.7965479456591	97.50604223334319	0	-1.077613842297402e-35
18.0399999999997	-8.121367549679796	-3.445720641344661	27.45176117710225	0	0.9399999999999999	0	41.86235482188969	-10.22127859097078	-10.21157325218621	48.12434692605695	0.8399283042317059	0	0	0	41.86235482188969	-10.22127859097078	-10.21157325218621	48.12434692605695	0.8399283042317059	0	0	0	-7.783436164299965	-0.6141646415077032	6.205307360642443	62.77326563510348	3.484488362478845	6.715446698294885	35.22962758755163	107.0469796657245	0	0	67.2496581544365	-2.570536559033546	10.05433535377322	58.59573849662341	96.81085450744982	0	0
18.0599999999997	-8.116082491901208	-3.460955230916342	27.38844341391773	0	0.9399999999999999	0	41.86325756277123	-10.22106515452873	-10.2114405898329	48.12573283270309	0.8399524928658062	0	0	0	41.86325756277123	-10.22106515452873	-10.2114405898329	48.12573283270309	0.8399524928658062	0	0	0	-7.78150737755959	-0.643499896716806	6.283547901356635	62.79508729327389	3.526239244996811	6.66917958174206	35.24425392657647	107.4236197285657	0	0	67.38844175250178	-2.543469960146989	10.26694616843916	58.3595171913313	96.17348666493477	0	0
18.0799999999997	-8.108850188493761	-3.463581855150799	27.34075866003628	0	0.9399999999999999	0	41.86438626580808	-10.22079162324159	-10.21127197780117	48.12742634788448	0.8399820502816541	0	0	0	41.86438626580808	-10.22079162324159	-10.21127197780117	48.12742634788448	0.8399820502816541	0	0	0	-7.774195667985448	-0.6558361010203744	6.324507745941536	62.80633195462018	3.558354583771611	6.655451130694156	35.26397343722678	107.6705398008057	0	0	67.38021038931461	-2.547781089067092	10.45208920268611	58.29764783286012	95.74845640875786	0	0
18.0999999999997	-8.105919912641754	-3.463257131819569	27.30597006873467	0	0.9399999999999999	0	41.86554078297507	-10.22051015232915	-10.21109879867706	48.12914779525092	0.8400120952060981	0	0	0	41.86554078297507	-10.22051015232915	-10.21109879867706	48.12914779525092	0.8400120952060981	0	0	0	-7.769633207484777	-0.662844284241219	6.36150912144514	62.84078956280453	3.581946729963844	6.637983806171351	35.2544482482417	107.8937848986831	0	0	67.35285596197528	-2.513958253958992	10.6465066237639	58.24671465762241	95.40602573000494	0	0
18.1199999999997	-8.096419637072149	-3.455374004482449	27.26544683602157	0	0.9399999999999999	0	41.86645958906275	-10.22028727632602	-10.21096141594469	48.13052321310698	0.8400361007762771	0	0	0	41.86645958906275	-10.22028727632602	-10.21096141594469	48.13052321310698	0.8400361007762771	0	0	0	-7.755264348003354	-0.6673944989298819	6.406130070294404	62.80322363703244	3.619228027827257	6.632791575900068	35.26157345736298	108.0196174832048	0	0	67.26301874584964	-2.417618643992885	10.79383823753581	58.14783094565611	94.90670445429176	0	0
18.1399999999997	-8.093983262652698	-3.464977009130278	27.24506247691444	0	0.9399999999999999	0	41.867359704213	-10.22006751380527	-10.21082623478209	48.13186186906538	0.8400594647303026	0	0	0	41.867359704213	-10.22006751380527	-10.21082623478209	48.13186186906538	0.8400594647303026	0	0	0	-7.756783975781419	-0.6793268000366951	6.419548441203949	62.80330006591254	3.612751339244824	6.646540043809797	35.32322551352876	108.120479040673	0	0	67.23364971127253	-2.369727317392579	10.86145142307178	58.0817315654206	94.68571227911185	0	0
18.1599999999997	-8.078882714619468	-3.460883825264926	27.22443099678384	0	0.9399999999999999	0	41.86824873551222	-10.21984984646615	-10.21069245603958	48.13317993080882	0.8400824692474702	0	0	0	41.86824873551222	-10.21984984646615	-10.21069245603958	48.13317993080882	0.8400824692474702	0	0	0	-7.740627121126745	-0.6853002548866294	6.435467998989045	62.76799461798851	3.508348508342078	6.595279405835269	35.42089336114962	108.2548501730193	0	0	67.15005055131574	-2.290973716495833	10.80985306247019	57.98718995114368	94.6188433981463	0	0
18.1799999999997	-8.056132768969352	-3.455921610155099	27.17992423319009	0	0.9399999999999999	0	41.86955689724184	-10.21952958844127	-10.21049558935386	48.13511811231931	0.8401162968963296	0	0	0	41.86955689724184	-10.21952958844127	-10.21049558935386	48.13511811231931	0.8401162968963296	0	0	0	-7.716244639503731	-0.697361881156408	6.47201421095638	62.75196211536523	3.349530187295832	6.339546036434096	35.57627987937122	108.5620904730946	0	0	67.05953281091732	-2.220128646510066	10.71161654942231	57.8497035821791	94.57835511471315	0	0
